<?xml version="1.0" encoding="utf-8"?>
<!-- Generator: Adobe Illustrator 22.1.0, SVG Export Plug-In . SVG Version: 6.00 Build 0)  -->
<svg version="1.1" xmlns="http://www.w3.org/2000/svg" xmlns:xlink="http://www.w3.org/1999/xlink" x="0px" y="0px"
	 viewBox="0 0 100 100" style="enable-background:new 0 0 100 100;" xml:space="preserve">
<style type="text/css">
	.st0{fill:#273C75;}
	.st1{fill:#B2224B;stroke:#EFEFEF;stroke-width:0.5;stroke-miterlimit:10;}
	.st2{fill:none;stroke:#FFFFFF;stroke-width:0.5;stroke-miterlimit:10;}
	.st3{fill:#B2224B;stroke:#FFFFFF;stroke-width:0.5;stroke-miterlimit:10;}
</style>
<g id="Calque_2">
	<rect x="-0.5" y="-0.5" class="st0" width="101" height="101"/>
</g>
<g id="Calque_1">
	<g>
		<path class="st1" d="M20.2,28.2c0,0.2,0.1,0.4,0.2,0.5c0.2,0.2,0.5,0.4,0.9,0.6c0.5,0.2,0.9,0.3,1.4,0.1c0.5-0.1,0.8-0.3,1-0.5
			c0.2-0.2,0.4-0.4,0.5-0.6c0.1-0.2,0.2-0.4,0.2-0.6c0-0.2-0.1-0.4-0.2-0.6c-0.1-0.2-0.2-0.3-0.4-0.5c-0.2-0.1-0.3-0.2-0.6-0.3
			c-0.2-0.1-0.4-0.1-0.6-0.1c-0.2,0-0.3,0-0.5,0.1c-0.1,0-0.3,0.1-0.4,0.1c0.2-0.2,0.5-0.4,0.7-0.6c0.5-0.4,0.9-0.7,1.2-1
			c0.3-0.3,0.6-0.6,0.8-0.8c0.2-0.3,0.3-0.6,0.3-0.9c0-0.3,0-0.8-0.2-1.3c-0.2-0.7-0.5-1.2-0.8-1.5c-0.3-0.3-0.6-0.4-1-0.4
			c-0.5,0-1,0.3-1.5,0.8s-1.1,1.1-1.7,1.9c-0.6,0.8-1.2,1.7-1.8,2.7c-0.6,1-1.2,2.1-1.8,3.2c-0.6,1.1-1.1,2.2-1.7,3.4
			c-0.5,1.1-1,2.2-1.5,3.2c-0.4,1-0.8,1.9-1.2,2.7c-0.3,0.8-0.6,1.5-0.8,2c-0.1,0.2-0.1,0.4-0.2,0.5c-0.1,0.2-0.1,0.3-0.2,0.5
			c0-0.1,0-0.2-0.1-0.4c0-0.1,0-0.2,0-0.4c-0.1-0.8-0.1-1.6-0.1-2.5c0-0.8,0-1.7,0-2.5c0-0.8,0-1.7,0-2.5s0-1.7,0-2.5
			c0-0.8-0.1-1.5-0.2-2.1c-0.1-0.6-0.3-1-0.5-1.3c-0.2-0.3-0.4-0.5-0.7-0.7c-0.2-0.1-0.5-0.2-0.7-0.2c-0.2,0-0.4,0.1-0.6,0.2
			c-0.2,0.1-0.4,0.2-0.5,0.4S7.1,26.6,7,26.8c-0.1,0.2-0.1,0.4-0.1,0.6c0,0.2,0,0.5,0.1,0.7S7,28.6,7,28.9c0.1,1,0.1,2,0.1,3.1
			c0,1,0,2,0,3.1s0,2,0,3c0,1,0,2,0.1,3c0,0.3,0,0.6,0.1,0.9c0,0.4,0.1,0.7,0.1,1.1c0.1,0.4,0.1,0.8,0.3,1.1c0.1,0.4,0.2,0.7,0.4,1
			c0.2,0.3,0.4,0.5,0.7,0.7c0.3,0.2,0.6,0.2,1,0.2c0.3,0,0.6-0.1,0.9-0.2c0.3-0.1,0.6-0.2,0.9-0.4c0.3-0.2,0.5-0.3,0.8-0.5
			c0.2-0.2,0.5-0.4,0.6-0.6c0.1-0.1,0.2-0.3,0.3-0.5c0.1-0.2,0.2-0.4,0.2-0.6c0.1-0.2,0.1-0.4,0.2-0.6c0.1-0.2,0.1-0.4,0.2-0.6
			c0-0.1,0.1-0.2,0.1-0.5c0.1-0.2,0.1-0.5,0.2-0.8c0.1-0.3,0.4-1.4,1.1-3.2s1.3-3.4,2-4.7c0.7-1.3,1.4-2.4,2-3.3
			C19.5,29.1,19.9,28.6,20.2,28.2z"/>
		<path class="st1" d="M52.2,28c-0.2-0.5-0.3-0.7-0.4-0.8c-0.1,0-0.2-0.1-0.3-0.1c-0.1,0-0.2,0-0.3,0c-0.2,0-0.4,0-0.6,0.1
			c-0.2,0.1-0.4,0.1-0.6,0.2c-0.4,0.2-0.9,0.4-1.4,0.7c-0.5,0.3-1,0.6-1.5,1c-0.5,0.4-0.8,0.8-1.1,1.2c-0.3,0.5-0.4,0.9-0.4,1.4
			c0,0.1,0,0.3,0.1,0.5c0.1,0.2,0.1,0.3,0.2,0.5c0.1,0.2,0.2,0.3,0.3,0.5c0.1,0.2,0.2,0.3,0.3,0.4c-0.2,0-0.4-0.1-0.5,0
			c-0.3,0-0.6,0.1-0.9,0.3c-0.1,0-0.3-0.1-0.4-0.1c-0.1,0-0.3,0.1-0.4,0.3c-0.2,0.2-0.9,1.1-2.2,2.9c-1.3,1.7-1.6,1.4-0.9-0.9
			c0.6-2.3,1-3.7,1.2-4.2c0.1-0.5,0.2-0.9,0.3-1.3c0.1-0.4,0.1-0.7,0.1-0.8c0-0.6-0.2-1-0.6-1.3c-0.4-0.3-0.8-0.3-1.3-0.2
			c-0.8,0.3-1.5,0.8-2.3,1.5c-0.8,0.7-1.3,1.4-1.7,2c0.2-0.8,0.1-1.4-0.3-1.7c-0.4-0.3-0.8-0.3-1.3,0c-0.5,0.3-0.8,0.6-1,1
			s-0.5,1.6-0.9,3.6c0,0.2-0.1,0.4-0.1,0.6c-0.1,0.1-0.2,0.2-0.3,0.4c-0.5,0.8-1,1.5-1.8,2c-0.7,0.5-1.4,0.8-2.1,0.9
			c-0.7,0.1-1.2,0-1.3-0.5c-0.2-0.5-0.2-0.9-0.1-1.3c0.1-0.4,0.2-0.6,0.2-0.6c0.8-0.2,1.6-0.4,2.3-0.7c0.7-0.3,1.3-0.7,1.8-1.4
			c0.5-0.6,0.8-1.4,0.8-2.3c0-0.9-0.3-1.6-1.1-2c-0.7-0.4-1.6-0.5-2.7-0.3c-1.1,0.2-2.1,0.8-3,1.9c-0.9,1-1.4,2-1.5,3
			c0,0.4-0.1,0.7-0.1,1c-0.1,0.1-0.3,0.3-0.4,0.4c-0.3,0.3-0.6,0.6-0.8,0.8s-0.4,0.5-0.6,0.7c-0.2,0.2-0.4,0.4-0.5,0.5
			c-0.2,0.1-0.3,0.2-0.4,0.2c-0.1,0-0.1-0.1-0.1-0.2c0-0.2,0.1-0.4,0.2-0.8c0.1-0.4,0.3-0.8,0.4-1.2c0.1-0.5,0.3-0.9,0.5-1.4
			c0.2-0.5,0.3-1,0.4-1.4s0.2-0.8,0.3-1.1c0.1-0.3,0.1-0.5,0.1-0.7c0-0.3-0.1-0.6-0.3-0.7c-0.2-0.1-0.7-0.2-1.4-0.1
			c-0.7,0.1-1.2,0.3-1.5,0.6c-0.2,0.4-0.6,2-1.2,5.1c-0.6,3-0.4,4.8,0.4,5.2c0.9,0.4,2.1-0.2,3.6-1.9c0.6-0.7,1.2-1.3,1.6-1.8
			c0.1,0.2,0.1,0.5,0.2,0.7c0.2,0.5,0.5,1,0.8,1.4c0.4,0.4,0.8,0.7,1.3,0.9c0.5,0.2,1.1,0.3,1.8,0.2c0.9-0.1,1.7-0.2,2.4-0.6
			c0.6-0.3,1.2-0.7,1.7-1.1l0,0.1c0,0.4,0.1,0.6,0.4,0.8c0.2,0.2,0.5,0.2,0.8,0.2c0.1,0,0.3,0,0.4-0.1c0.2-0.1,0.3-0.1,0.5-0.2
			s0.3-0.2,0.4-0.3c0.1-0.1,0.2-0.2,0.3-0.4c0-0.1,0.1-0.6,0.3-1.5c0.2-0.9,0.6-1.9,1.3-3.1c0.7-1.2,1.2-2,1.7-2.4
			c0.1-0.1,0.2-0.2,0.2-0.2c0.1,0,0.1,0.1,0.1,0.4c0,0.2-0.2,1.4-0.6,3.4c-0.4,2-0.5,3.3-0.5,3.7c0.1,0.4,0.2,0.8,0.4,1
			c0.2,0.3,0.5,0.4,0.9,0.4c0,0,0.1,0,0.2,0c0.3,0,0.7-0.1,1-0.3c0.3-0.2,0.7-0.4,1-0.7c0.3-0.3,0.7-0.6,1-1
			c0.1-0.2,0.4-0.5,0.9-1.1c0.1,0.3,0.1,0.6,0.3,0.9c0.2,0.4,0.4,0.8,0.7,1.1c0.3,0.3,0.6,0.5,1,0.7c0.4,0.1,0.8,0.2,1.3,0.2
			c1.2-0.2,2.1-0.6,2.8-1.3c0.7-0.7,1.1-1.5,1.3-2.3c0.2-0.9,0.2-1.6,0-2.3c-0.2-0.6-0.5-1.3-0.8-1.8c-0.3-0.6-0.6-1-0.9-1.4
			c-0.4-0.5-0.4-1,0.2-1.3c0.6-0.3,0.9-0.3,0.9,0.1c0,0.3,0.2,0.6,0.5,0.7c0.3,0.1,0.7-0.1,1-0.7c0.4-0.6,0.6-1,0.7-1.4
			C52.4,28.9,52.4,28.4,52.2,28z M28.5,33.5c0.2-0.2,0.4-0.5,0.6-0.7c0.2-0.2,0.4-0.4,0.7-0.7c0.2-0.2,0.4-0.4,0.6-0.5
			c0.1,0.4,0,0.8-0.1,1.1c-0.1,0.3-0.3,0.6-0.4,0.8s-0.4,0.4-0.7,0.5c-0.2,0.1-0.5,0.2-0.7,0.2s-0.4,0-0.5-0.1
			C28.2,34,28.4,33.7,28.5,33.5z M48,36.6c-0.1,0.2-0.2,0.4-0.4,0.6c-0.2,0.2-0.3,0.4-0.6,0.5c-0.2,0.1-0.4,0.2-0.7,0.2
			c-0.2,0-0.3,0-0.5,0c-0.2-0.1-0.3-0.2-0.4-0.4c-0.1-0.2-0.1-0.4-0.1-0.7c0-0.2,0.1-0.5,0.3-0.8c0.2-0.3,0.4-0.5,0.7-0.7
			c0.1-0.1,0.2-0.1,0.3-0.2c0.1-0.1,0.2-0.1,0.3-0.2l0.2-0.2c0.1-0.1,0.1-0.2,0.2-0.3c0.2,0.2,0.3,0.4,0.5,0.7
			c0.2,0.3,0.3,0.5,0.3,0.8C48.1,36.1,48.1,36.3,48,36.6z"/>
	</g>
	<g>
		<path class="st2" d="M40.7,53.1c-0.1,0-0.3,0-0.5,0.1c-0.2,0.1-0.4,0.1-0.5,0.2c-0.2,0.1-0.4,0.2-0.5,0.3
			c-0.2,0.1-0.3,0.2-0.4,0.3c-0.4,0.2-0.7,0.5-0.9,0.9c-0.2,0.4-0.4,0.7-0.5,1.2c-0.1,0.4-0.2,0.8-0.2,1.3c0,0.4,0,0.9,0,1.3
			c0.2-0.1,0.4-0.3,0.7-0.5c0.3-0.3,0.6-0.5,0.8-0.9s0.6-0.7,0.9-1.1s0.5-0.8,0.8-1.1c0.2-0.4,0.4-0.7,0.5-1
			c0.1-0.3,0.2-0.6,0.2-0.8c0,0-0.1,0-0.1,0C40.8,53,40.7,53,40.7,53.1z"/>
		<path class="st2" d="M60.6,52.7c-0.8,0.6-1.3,1.3-1.7,2.3c-0.4,0.9-0.4,1.7-0.3,2.3s0.7,0.4,1.6-0.8s1.4-2.1,1.5-2.8
			c0.1-0.7,0.2-1.2,0.1-1.5C61.8,52,61.3,52.2,60.6,52.7z"/>
		<path class="st2" d="M82.9,52.9c0.3-0.1,0.5-0.3,0.7-0.5c0.2-0.2,0.3-0.5,0.4-0.8c0.1-0.3,0.1-0.7,0.1-1.1
			c-0.2,0.1-0.4,0.3-0.6,0.5c-0.2,0.2-0.4,0.4-0.7,0.6c-0.2,0.2-0.4,0.5-0.6,0.7c-0.2,0.2-0.3,0.5-0.5,0.7c0.1,0.1,0.3,0.1,0.5,0.1
			C82.4,53.1,82.6,53,82.9,52.9z"/>
		<path class="st2" d="M71.8,48.4c-0.1,0.5-0.4,1.4-0.8,2.7s-0.7,2.3-0.9,3c-0.2,0.8-0.4,1.5-0.5,2.2c-0.1,0.7-0.2,1.5-0.2,2.4
			c0,0.9,0.2,1,0.6,0.6c0.4-0.5,0.8-1.3,1.2-2.4c0.4-1.1,0.6-1.8,0.6-2c0.2-0.9,0.5-2,1-3.4c0.5-1.4,0.8-2.5,1-3.4
			c-0.3,0-0.7,0.1-1,0.1C72.5,48.3,72.2,48.3,71.8,48.4z"/>
		<path class="st3" d="M32,55.7c-0.3-0.6-0.7-1.1-1.1-1.6s-1-0.9-1.6-1.3c-0.6-0.4-1.2-0.7-1.9-0.9c-0.4-0.2-0.7-0.3-1.1-0.4
			c-0.4-0.1-0.8-0.2-1.1-0.3C24.8,51.1,24.4,51,24,51c-0.4-0.1-0.8-0.2-1.1-0.3c-0.2,0-0.4-0.1-0.7-0.2c-0.3-0.1-0.6-0.2-0.9-0.4
			c-0.3-0.1-0.6-0.3-0.8-0.5s-0.3-0.4-0.4-0.6c0-0.1,0-0.3,0.2-0.5c0.1-0.2,0.2-0.3,0.3-0.4c0.2-0.2,0.6-0.5,1.1-0.7
			c0.5-0.3,1.1-0.5,1.7-0.7c0.6-0.2,1.3-0.4,1.9-0.6c0.7-0.2,1.3-0.3,1.8-0.3c0.3,0,0.5,0,0.8,0s0.4,0.1,0.6,0.3
			c0.2,0.2,0.2,0.3,0.1,0.6c-0.1,0.2-0.3,0.4-0.5,0.6c-0.2,0.2-0.5,0.4-0.9,0.6c-0.3,0.2-0.6,0.3-0.9,0.5c-0.3,0.2-0.5,0.3-0.7,0.4
			c-0.2,0.1-0.3,0.3-0.3,0.4c0,0.1,0,0.2,0.1,0.3c0,0.1,0.1,0.2,0.1,0.3c0.1,0.2,0.1,0.3,0.2,0.5c0.1,0.1,0.2,0.3,0.3,0.4
			c0.1,0.1,0.2,0.2,0.4,0.3c0.1,0.1,0.3,0.1,0.5,0.1c0.3,0,0.7-0.1,0.9-0.3c0.3-0.2,0.6-0.4,0.8-0.6c0.3-0.2,0.5-0.4,0.8-0.7
			c0.3-0.3,0.5-0.5,0.8-0.8c0.2-0.3,0.4-0.6,0.5-1c0.1-0.3,0.2-0.7,0.2-1.1c0-0.4-0.1-0.8-0.3-1.1s-0.5-0.6-0.8-0.8
			c-0.3-0.2-0.7-0.4-1.1-0.5C28.4,44.1,28,44,27.5,44c-0.4-0.1-0.8-0.1-1.2-0.1c-0.4,0-0.7,0-1.1,0l-0.4,0c-0.5,0-1,0.1-1.6,0.2
			c-0.6,0.1-1.2,0.3-1.8,0.5c-0.6,0.2-1.2,0.4-1.8,0.7c-0.6,0.3-1.1,0.6-1.6,1c-0.4,0.4-0.8,0.8-1.1,1.3c-0.3,0.5-0.4,1-0.3,1.6
			c0,0.7,0.3,1.2,0.6,1.7c0.4,0.5,0.9,0.9,1.4,1.3c0.6,0.3,1.2,0.6,1.8,0.9s1.2,0.4,1.8,0.5c0.4,0.1,0.8,0.2,1.2,0.2
			s0.8,0.2,1.2,0.3c0.4,0.1,0.9,0.3,1.4,0.5c0.5,0.2,1,0.5,1.4,0.8c0.4,0.3,0.8,0.7,1.1,1.1c0.3,0.4,0.5,0.9,0.5,1.4
			c0,0.7-0.1,1.4-0.5,2c-0.4,0.7-0.8,1.3-1.5,1.8c-0.6,0.6-1.3,1.1-2.1,1.5c-0.8,0.5-1.6,0.9-2.4,1.2s-1.6,0.6-2.4,0.8
			s-1.5,0.3-2.1,0.3c-0.4,0-0.8,0-1.2,0c-0.4,0-0.8-0.1-1.2-0.2c-0.4-0.1-0.7-0.3-0.9-0.4c-0.2-0.2-0.4-0.4-0.6-0.6
			c-0.1-0.2-0.3-0.5-0.3-0.8c-0.1-0.3-0.1-0.6-0.1-1c0-0.8,0.1-1.5,0.3-2.1c0.3-0.7,0.6-1.2,1.1-1.7c0.5-0.5,1-0.9,1.7-1.2
			s1.4-0.5,2.1-0.5c0.7,0,1.4,0,2.1,0.2c0.5,0.1,0.9,0.2,1.4,0.3c0.5,0.1,1,0.2,1.5,0.2c0.1,0,0.2,0,0.3,0c0.1,0,0.2-0.1,0.3-0.1
			c0.1-0.1,0.2-0.1,0.2-0.2C25,57.2,25,57.1,25,57c0-0.2-0.1-0.3-0.2-0.5s-0.2-0.3-0.4-0.4c-0.3-0.3-0.7-0.6-1.2-0.8
			c-0.5-0.2-1-0.3-1.5-0.4c-0.5-0.1-1.1-0.1-1.6-0.1c-0.5,0-1,0-1.5,0c-0.6,0-1.3,0.1-2,0.2s-1.5,0.3-2.2,0.5
			c-0.7,0.2-1.4,0.4-2.1,0.7c-0.7,0.3-1.2,0.6-1.7,1c-1.2,0.9-2,1.8-2.6,2.9s-1,2.1-1.1,3.1c-0.1,1.1,0,2.1,0.3,3.1s0.9,1.9,1.6,2.6
			c0.7,0.8,1.6,1.4,2.6,1.8s2.2,0.7,3.5,0.7c0.2,0,0.3,0,0.5,0c0.2,0,0.3,0,0.5,0c1.6-0.1,3.1-0.4,4.5-0.8s2.8-1,4-1.7
			c1.2-0.7,2.4-1.5,3.4-2.4c1-0.9,1.9-1.8,2.6-2.8c0.7-1,1.2-2,1.6-3c0.4-1,0.5-2,0.5-2.9C32.4,57,32.3,56.3,32,55.7z"/>
		<path class="st3" d="M97.9,52.9c-0.2-0.1-0.4-0.2-0.6-0.2c-0.1,0-0.3,0-0.4,0.1s-0.2,0.1-0.3,0.3c-2.2,2.9-3.3,4.3-3.4,4.1
			c-0.1-0.2-0.1-0.5,0-1.1c0.2-0.6,0.3-1.1,0.5-1.5c0.1-0.4,0.3-0.9,0.5-1.3c0.2-0.5,0.4-1,0.6-1.5s0.4-1,0.6-1.4
			c0-0.1,0.1-0.2,0.2-0.5c0.1-0.2,0.2-0.5,0.3-0.8c0.1-0.3,0.2-0.6,0.3-0.9c0.1-0.3,0.2-0.6,0.3-0.9c0.1-0.3,0.2-0.5,0.2-0.8
			c0.1-0.2,0.1-0.4,0.1-0.5c0-0.2,0-0.3-0.1-0.3c-0.1,0-0.2-0.1-0.3-0.2c-0.2-0.1-0.5-0.3-0.7-0.4c-0.2-0.1-0.5-0.2-0.8-0.1
			c-0.4,0-0.7,0.1-0.9,0.2c-0.2,0.1-0.4,0.3-0.5,0.5c-0.2,0.5-0.5,0.9-0.8,1.2c-0.3,0.3-0.6,0.6-1,0.8c-0.3,0.2-0.7,0.4-1,0.5
			c-0.3,0.1-0.7,0.2-1,0.3c-0.3,0.1-0.6,0.1-0.8,0.2c-0.2,0.1-0.4,0.1-0.6,0.2l0,0c-0.1,0.1-0.1,0.1-0.2,0.3
			c-0.1,0.1-0.2,0.3-0.2,0.4c-0.1,0.1-0.1,0.3-0.2,0.4s-0.1,0.2-0.1,0.3c0,0.2,0,0.4,0.1,0.7c0,0.2,0.1,0.4,0.1,0.6
			c0,0.4-0.3,1.3-0.9,2.6c-0.1,0.1-0.1,0.2-0.2,0.3c-0.5,0.8-1.1,1.5-1.8,2c-0.7,0.5-1.4,0.8-2.1,0.9c-0.7,0.1-1.2,0-1.3-0.5
			c-0.2-0.5-0.2-0.9-0.1-1.3c0.1-0.3,0.2-0.6,0.2-0.6c0.8-0.2,1.6-0.4,2.3-0.7c0.7-0.3,1.3-0.7,1.9-1.3s0.8-1.4,0.8-2.3
			c0-0.9-0.3-1.6-1.1-2c-0.7-0.4-1.6-0.5-2.7-0.3c-1.1,0.2-2.1,0.8-3,1.8c-0.9,1-1.4,2-1.5,3c-0.1,0.9-0.2,1.5-0.2,2
			c-0.3,0.6-0.8,1.3-1.5,2.2c-0.8,0.9-1.2,1.1-1.2,0.5c0-0.6,0-1.3,0.1-1.9c0.1-0.7,0.3-1.4,0.4-2.1c0.2-0.7,0.4-1.7,0.8-2.9
			c0.4-1.2,0.6-2.1,0.7-2.5c0-0.1,0.1-0.3,0.1-0.4c0-0.1,0.1-0.3,0.1-0.4c0.2,0,0.5-0.1,0.8-0.1c0.3,0,0.7-0.1,1.1-0.1
			c0.4,0,0.8-0.1,1.2-0.1c0.4-0.1,0.8-0.1,1.2-0.2c0.4-0.1,0.7-0.1,1-0.2c0.3-0.1,0.5-0.2,0.7-0.3c0.1-0.1,0.2-0.2,0.3-0.3
			c0.1-0.1,0.2-0.3,0.3-0.5c0.1-0.2,0.1-0.4,0.1-0.5c0-0.1-0.1-0.2-0.1-0.3c-0.1-0.1-0.2-0.1-0.3-0.2s-0.2-0.1-0.4-0.1
			c-0.1,0-0.2,0-0.3,0c-0.3,0-0.6,0.1-0.9,0.1c-0.3,0-0.6,0.1-0.9,0.1L78,45.4c0.5-2.5,0.5-3.8,0.2-3.9c-0.3-0.1-0.7-0.1-1-0.1
			c-0.2,0-0.4,0-0.6,0.1c-0.2,0-0.4,0.2-0.7,0.4c-0.3,0.3-0.6,0.8-0.9,1.7c-0.3,0.9-0.6,1.6-0.7,2.2c-0.3,0-0.6,0.1-0.9,0.1
			c-0.3,0-0.6,0.1-0.9,0.1c0.1-1.8,0-2.8-0.2-2.8s-0.5-0.1-0.8,0c-0.2,0-0.4,0-0.6,0.1c-0.2,0-0.4,0.3-0.8,0.8
			c-0.7,1.1-1.1,2-1.2,2.5c-0.1,0-0.3,0-0.5,0c-0.2,0-0.5,0.1-0.8,0.1c-0.3,0-0.6,0.1-0.9,0.1c-0.3,0-0.6,0.1-0.9,0.1
			c-0.3,0-0.5,0.1-0.7,0.1c-0.2,0-0.3,0.1-0.4,0.1c-0.1,0-0.2,0.1-0.2,0.2c-0.1,0.1-0.2,0.2-0.2,0.2c-0.1,0.1-0.1,0.2-0.2,0.3
			C64,48,64,48.1,64,48.2c0,0.2,0.1,0.3,0.2,0.4s0.2,0.2,0.4,0.2c0.1,0,0.3,0.1,0.4,0.1c0.2,0,0.3,0,0.4,0c0.5,0,1-0.1,1.5-0.1
			c0.5,0,1-0.1,1.5-0.1c-0.2,0.7-0.5,1.6-0.8,2.8c-0.4,1.2-0.7,2.1-0.9,2.8c-0.2,0.6-0.3,1.2-0.5,1.9c-0.3,0.5-0.8,0.9-1.4,1.4
			c-0.8,0.6-1.2,0.5-1.1-0.5c0.1-0.2,0.1-0.5,0.3-0.9c0.1-0.4,0.2-0.8,0.3-1.2c0.1-0.4,0.2-0.9,0.4-1.3s0.2-0.9,0.3-1.3
			c0.1-0.4,0.2-0.8,0.2-1.2c0.1-0.3,0.1-0.6,0.1-0.8c0-0.4-0.2-0.7-0.5-0.8c-0.3-0.2-0.6-0.3-1-0.2c-0.2,0-0.3,0-0.5,0.1
			c-0.2,0.1-0.3,0.2-0.5,0.3c-0.2,0-0.4-0.1-0.6-0.1c-0.2,0-0.4,0-0.6,0c-0.9,0.1-1.8,0.3-2.6,0.7s-1.5,1-2,1.7
			c-0.6,0.7-1,1.4-1.3,2.3c-0.2,0.5-0.3,1.1-0.3,1.6c-0.1,0.1-0.2,0.3-0.3,0.4c-0.2,0.3-0.4,0.6-0.6,0.9c-0.2,0.3-0.4,0.6-0.6,0.8
			c-0.2,0.3-0.4,0.5-0.5,0.6c-0.2,0.2-0.3,0.3-0.4,0.3c-0.1,0-0.1-0.1-0.2-0.2c0-0.1,0-0.3,0.1-0.7c0.2-0.8,0.4-1.7,0.6-2.5
			s0.5-1.7,0.7-2.5c0.1-0.2,0.1-0.4,0.2-0.7c0.1-0.3,0.2-0.6,0.3-0.8c0.1-0.3,0.1-0.6,0.2-0.8c0.1-0.3,0.1-0.5,0.1-0.7
			c0-0.3-0.1-0.5-0.3-0.6c-0.2-0.1-0.4-0.2-0.7-0.2c-0.1,0-0.3,0-0.5,0.1c-0.2,0.1-0.4,0.1-0.6,0.2c-0.2,0.1-0.4,0.2-0.6,0.3
			c-0.2,0.1-0.3,0.2-0.4,0.3c-0.1,0.1-0.2,0.2-0.2,0.3c0,0.1-0.1,0.2-0.1,0.4c0,0.1,0,0.2-0.1,0.3c0,0.1,0,0.2,0,0.3
			c-0.1,0.3-0.1,0.7-0.2,1.2c-0.1,0.5-0.2,1-0.3,1.6c-0.1,0.6-0.3,1.1-0.5,1.7c-0.2,0.6-0.3,1.1-0.5,1.5c-0.2,0.4-0.4,0.8-0.6,1.1
			c-0.2,0.3-0.5,0.4-0.7,0.5c-0.1,0-0.2,0-0.3-0.1c-0.2-0.1-0.2-0.3-0.2-0.6c0-0.3,0-0.7,0.1-1.2c0.1-0.5,0.2-1,0.4-1.5
			c0.2-0.5,0.3-1.1,0.5-1.5c0.1-0.5,0.3-0.9,0.4-1.3c0.1-0.4,0.2-0.6,0.2-0.7c0-0.4-0.1-0.6-0.4-0.8C48.9,51,48.6,51,48.3,51
			c-0.4,0-0.7,0.1-1,0.3c-0.3,0.2-0.6,0.4-0.8,0.6c-0.2,0.2-0.3,0.4-0.4,0.6c-0.1,0.2-0.1,0.4-0.2,0.7c0,0,0,0.2-0.1,0.4
			c-0.1,0.3-0.3,1.3-0.7,2.9c-0.1,0.4-0.1,0.7-0.2,1.1c-0.3,0.5-0.6,1.1-1.1,1.8c-1,1.7-1.7,2.8-1.9,3.2c-0.2,0.4-0.4,0.6-0.5,0.8
			c-0.2,0.2-0.3,0.3-0.3,0.3c-0.1,0-0.1-0.3,0-0.9c0.1-0.2,0.1-0.5,0.3-1c0.1-0.4,0.3-0.9,0.5-1.5c0.2-0.6,0.4-1.2,0.6-1.9
			s0.4-1.3,0.7-2c0.2-0.7,0.4-1.3,0.7-1.9c0.2-0.6,0.4-1.2,0.6-1.7c0.2-0.5,0.3-0.9,0.4-1.2c0.1-0.3,0.1-0.5,0.1-0.5
			c0-0.2-0.1-0.4-0.1-0.5c-0.1-0.1-0.2-0.2-0.3-0.3c-0.1-0.1-0.3-0.1-0.4-0.2c-0.2,0-0.3,0-0.5,0c-0.2,0-0.3,0-0.5,0.1
			c-0.2,0-0.3,0.1-0.4,0.2c-0.2,0-0.4,0-0.6,0c-0.2,0-0.4,0-0.6,0c-0.7,0-1.4,0.1-2.1,0.3c-0.7,0.2-1.3,0.4-1.9,0.7
			c-0.6,0.3-1.1,0.7-1.6,1.2c-0.5,0.5-0.9,1.1-1.2,1.7c-0.2,0.4-0.4,0.9-0.5,1.4c-0.1,0.5-0.2,1.1-0.3,1.6c0,0.5,0,1.1,0.1,1.6
			c0.1,0.5,0.3,1,0.5,1.4c0.2,0.4,0.6,0.7,1,0.9c0.4,0.2,1,0.3,1.7,0.3c0.2,0,0.4,0,0.6-0.1c0.2,0,0.4-0.1,0.5-0.2
			c-0.2,0.5-0.3,1-0.4,1.5c-0.1,0.5-0.1,1.1-0.1,1.6c0,0.5,0,1.1,0.1,1.5c0.1,0.5,0.2,0.9,0.4,1.3c0.2,0.4,0.4,0.7,0.7,0.9
			c0.3,0.2,0.7,0.3,1.1,0.3c0.3,0,0.5,0,0.6-0.1c0.2,0,0.3-0.1,0.4-0.2c0.1-0.1,0.2-0.2,0.3-0.3c0.1-0.1,0.2-0.3,0.3-0.5
			c0.6-1.1,1.9-3.2,3.7-6.5c0.5,0.7,1.1,1.1,2,1c1-0.1,1.9-0.7,2.6-1.7c-0.1,1.1,0.3,1.8,1.2,2c0.6,0,1-0.2,1.5-0.6
			c0.2-0.1,0.4-0.3,0.7-0.6s0.6-0.6,0.9-1c0.3-0.4,0.6-0.8,0.9-1.2c0.1-0.2,0.3-0.4,0.4-0.6c0,0.1,0,0.1,0,0.2
			c0.1,0.5,0.3,0.9,0.5,1.3c0.2,0.4,0.6,0.7,1,0.9s0.9,0.3,1.5,0.3c0.4,0,0.8-0.1,1.2-0.3c0.4-0.1,1-0.6,1.9-1.4
			c0.6,1,1.4,1.4,2.5,1.2c0.6-0.1,1.2-0.6,1.9-1.4c0,1.2,0.3,2,0.7,2.4c0.6,0.5,1.3,0.7,2.2,0.7c0.8-0.1,1.4-0.5,1.9-1.1
			c0.4-0.6,0.8-1.3,1.2-2c0.2,1.5,0.8,2.2,1.7,2.2c0.9,0,1.8-0.4,2.5-1.2c0.7-0.8,1.4-1.6,1.9-2.4c0.2,0.4,0.4,0.8,0.7,1.1
			c0.4,0.4,0.8,0.7,1.3,0.9c0.5,0.2,1.1,0.3,1.8,0.2c0.9-0.1,1.7-0.2,2.4-0.6c0.1,0,0.2-0.1,0.2-0.1c0,0,0,0,0.1,0.1
			c0.1,0.1,0.2,0.1,0.3,0.2c0.1,0,0.2,0.1,0.3,0.1c0.1,0,0.2,0,0.3,0c0.4,0,0.7-0.2,1-0.5c0.3-0.3,0.6-0.8,1-1.5
			c0.4-0.7,0.8-1.5,1.2-2.4c0.4-1,0.7-1.8,0.8-2.4c0.1-0.7,0.3-1.2,0.5-1.5c0.3-0.1,0.5-0.2,0.8-0.2c0.3-0.1,0.5-0.1,0.8-0.2
			c-0.3,0.4-0.6,1.4-1,2.8c-0.4,1.4-0.7,2.7-0.7,3.8c0,1.1,0.1,2,0.4,2.6c0.3,0.6,0.7,0.9,1.1,0.9c0.5,0,1-0.1,1.5-0.5s1.2-1,1.9-2
			c0.7-1,1.3-1.8,1.9-2.5c0.5-0.7,0.9-1.2,1.1-1.5c0.2-0.3,0.3-0.5,0.2-0.7C98.2,53.3,98.1,53.1,97.9,52.9z M82.2,52.3
			c0.2-0.2,0.4-0.5,0.6-0.7c0.2-0.2,0.4-0.4,0.7-0.6c0.2-0.2,0.4-0.4,0.6-0.5c0.1,0.4,0,0.8-0.1,1.1c-0.1,0.3-0.3,0.6-0.4,0.8
			c-0.2,0.2-0.4,0.4-0.7,0.5c-0.2,0.1-0.5,0.2-0.7,0.2c-0.2,0-0.4,0-0.5-0.1C81.8,52.8,82,52.6,82.2,52.3z M40.8,53.8
			c-0.1,0.3-0.3,0.7-0.5,1c-0.2,0.4-0.5,0.7-0.8,1.1s-0.6,0.7-0.9,1.1s-0.6,0.6-0.8,0.9c-0.3,0.3-0.5,0.4-0.7,0.5c0-0.4,0-0.8,0-1.3
			c0-0.4,0.1-0.9,0.2-1.3c0.1-0.4,0.3-0.8,0.5-1.2c0.2-0.4,0.5-0.7,0.9-0.9c0.1-0.1,0.3-0.2,0.4-0.3c0.2-0.1,0.3-0.2,0.5-0.3
			c0.2-0.1,0.4-0.2,0.5-0.2c0.2-0.1,0.3-0.1,0.5-0.1c0,0,0.1,0,0.1,0c0,0,0.1,0,0.1,0C41,53.3,40.9,53.5,40.8,53.8z M61.8,53.7
			c-0.1,0.7-0.7,1.7-1.5,2.8s-1.4,1.4-1.6,0.8s-0.1-1.4,0.3-2.3c0.4-0.9,0.9-1.7,1.7-2.3c0.8-0.6,1.2-0.7,1.3-0.5
			C61.9,52.5,61.9,53,61.8,53.7z M72.9,51.5c-0.5,1.4-0.8,2.5-1,3.4c0,0.2-0.2,0.9-0.6,2c-0.4,1.1-0.8,1.9-1.2,2.4
			c-0.4,0.5-0.6,0.3-0.6-0.6c0-0.9,0.1-1.7,0.2-2.4c0.1-0.7,0.3-1.5,0.5-2.2c0.2-0.8,0.5-1.8,0.9-3s0.6-2.2,0.8-2.7
			c0.3,0,0.7-0.1,1-0.1c0.3,0,0.7-0.1,1-0.1C73.6,49,73.3,50.2,72.9,51.5z"/>
	</g>
</g>
</svg>
