<?xml version="1.0" encoding="utf-8"?>
<!-- Generator: Adobe Illustrator 22.1.0, SVG Export Plug-In . SVG Version: 6.00 Build 0)  -->
<svg version="1.1" id="Calque_1" xmlns="http://www.w3.org/2000/svg" xmlns:xlink="http://www.w3.org/1999/xlink" x="0px" y="0px"
	 viewBox="0 0 100 50" style="enable-background:new 0 0 100 50;" xml:space="preserve">
<style type="text/css">
	.st0{fill:#B2224B;stroke:#EFEFEF;stroke-width:0.5;stroke-miterlimit:10;}
	.st1{fill:none;stroke:#FFFFFF;stroke-width:0.5;stroke-miterlimit:10;}
	.st2{fill:#B2224B;stroke:#FFFFFF;stroke-width:0.5;stroke-miterlimit:10;}
</style>
<g id="Calque_1_1_">
	<g>
		<path class="st0" d="M20.9,9.5c0,0.2,0.1,0.4,0.2,0.5c0.2,0.2,0.5,0.4,0.8,0.5c0.5,0.2,0.8,0.3,1.3,0.1c0.5-0.1,0.7-0.3,0.9-0.5
			s0.4-0.4,0.5-0.5s0.2-0.4,0.2-0.5s-0.1-0.4-0.2-0.5S24.4,8.2,24.2,8c-0.2-0.1-0.3-0.2-0.5-0.3c-0.2-0.1-0.4-0.1-0.5-0.1
			s-0.3,0-0.5,0.1c-0.1,0-0.3,0.1-0.4,0.1c0.2-0.2,0.5-0.4,0.6-0.5C23.4,7,23.7,6.7,24,6.4c0.3-0.3,0.5-0.5,0.7-0.7
			C24.9,5.4,25,5.2,25,4.9c0-0.3,0-0.7-0.2-1.2c-0.2-0.6-0.5-1.1-0.7-1.4S23.5,2,23.2,2c-0.5,0-0.9,0.3-1.4,0.7s-1,1-1.5,1.7
			S19.2,6,18.7,6.9s-1.1,1.9-1.6,2.9s-1,2-1.5,3.1c-0.5,1-0.9,2-1.4,2.9c-0.4,0.9-0.7,1.7-1.1,2.4c-0.3,0.7-0.5,1.4-0.7,1.8
			c-0.1,0.2-0.1,0.4-0.2,0.5c-0.1,0.2-0.1,0.3-0.2,0.5c0-0.1,0-0.2-0.1-0.4c0-0.1,0-0.2,0-0.4c-0.1-0.7-0.1-1.4-0.1-2.3
			c0-0.7,0-1.5,0-2.3c0-0.7,0-1.5,0-2.3c0-0.7,0-1.5,0-2.3c0-0.7-0.1-1.4-0.2-1.9c-0.1-0.5-0.3-0.9-0.5-1.2
			c-0.2-0.3-0.4-0.5-0.6-0.6c-0.2-0.1-0.5-0.2-0.6-0.2S9.6,7.3,9.4,7.4S9,7.6,8.9,7.8C8.9,7.9,9.1,8,9,8.2C8.9,8.4,8.9,8.6,8.9,8.8
			s0,0.5,0.1,0.6c0.1,0.2,0,0.5,0,0.7c0.1,0.9,0.1,1.8,0.1,2.8c0,0.9,0,1.8,0,2.8s0,1.8,0,2.7s0,1.8,0.1,2.7c0,0.3,0,0.5,0.1,0.8
			c0,0.4,0.1,0.6,0.1,1c0.1,0.4,0.1,0.7,0.3,1c0.1,0.4,0.2,0.6,0.4,0.9s0.4,0.5,0.6,0.6c0.3,0.2,0.5,0.2,0.9,0.2
			c0.3,0,0.5-0.1,0.8-0.2c0.3-0.1,0.5-0.2,0.8-0.4c0.3-0.2,0.5-0.3,0.7-0.5c0.2-0.2,0.5-0.4,0.5-0.5c0.1-0.1,0.2-0.3,0.3-0.5
			s0.2-0.4,0.2-0.5c0.1-0.2,0.1-0.4,0.2-0.5c0.1-0.2,0.1-0.4,0.2-0.5c0-0.1,0.1-0.2,0.1-0.5c0.1-0.2,0.1-0.5,0.2-0.7
			c0.1-0.3,0.4-1.3,1-2.9c0.6-1.6,1.2-3.1,1.8-4.2c0.6-1.2,1.3-2.2,1.8-3C20.3,10.3,20.7,9.8,20.9,9.5z"/>
		<path class="st0" d="M49.8,9.3c-0.2-0.5-0.3-0.6-0.4-0.7c-0.1,0-0.2-0.1-0.3-0.1s-0.2,0-0.3,0c-0.2,0-0.4,0-0.5,0.1
			c-0.2,0.1-0.4,0.1-0.5,0.2c-0.4,0.2-0.8,0.4-1.3,0.6c-0.5,0.3-0.9,0.5-1.4,0.9c-0.5,0.4-0.7,0.7-1,1.1c-0.3,0.5-0.4,0.8-0.4,1.3
			c0,0.1,0,0.3,0.1,0.5s0.1,0.3,0.2,0.5c0.1,0.2,0.2,0.3,0.3,0.5s0.2,0.3,0.3,0.4c-0.2,0-0.4-0.1-0.5,0c-0.3,0-0.5,0.1-0.8,0.3
			c-0.1,0-0.3-0.1-0.4-0.1c-0.1,0-0.3,0.1-0.4,0.3c-0.2,0.2-0.8,1-2,2.6c-1.2,1.5-1.4,1.3-0.8-0.8c0.5-2.1,0.9-3.3,1.1-3.8
			c0.1-0.5,0.2-0.8,0.3-1.2s0.1-0.6,0.1-0.7c0-0.5-0.2-0.9-0.5-1.2c-0.4-0.3-0.7-0.3-1.2-0.2c-0.7,0.3-1.4,0.7-2.1,1.4
			c-0.7,0.6-1.2,1.3-1.5,1.8c0.2-0.7,0.1-1.3-0.3-1.5c-0.4-0.3-0.7-0.3-1.2,0s-0.7,0.5-0.9,0.9c-0.2,0.4-0.5,1.4-0.8,3.2
			c0,0.2-0.1,0.4-0.1,0.5c-0.1,0.1-0.2,0.2-0.3,0.4C32,17,31.6,17.6,30.8,18c-0.6,0.5-1.3,0.7-1.9,0.8c-0.6,0.1-1.1,0-1.2-0.5
			c-0.2-0.5-0.2-0.8-0.1-1.2c0.1-0.4,0.2-0.5,0.2-0.5c0.7-0.2,1.4-0.4,2.1-0.6c0.6-0.3,1.2-0.6,1.6-1.3c0.5-0.5,0.7-1.3,0.7-2.1
			c0-0.8-0.3-1.4-1-1.8c-0.6-0.4-1.4-0.5-2.4-0.3c-1,0.2-1.9,0.7-2.7,1.7c-0.8,0.9-1.3,1.8-1.4,2.7c0,0.4-0.1,0.6-0.1,0.9
			c-0.1,0.1-0.3,0.3-0.4,0.4c-0.3,0.3-0.5,0.5-0.7,0.7s-0.4,0.5-0.5,0.6s-0.4,0.4-0.5,0.5c-0.2,0.1-0.3,0.2-0.4,0.2
			s-0.1-0.1-0.1-0.2c0-0.2,0.1-0.4,0.2-0.7c0.1-0.4,0.3-0.7,0.4-1.1c0.1-0.5,0.3-0.8,0.5-1.3c0.2-0.5,0.3-0.9,0.4-1.3s0.2-0.7,0.3-1
			c0.1-0.3,0.1-0.5,0.1-0.6c0-0.3-0.1-0.5-0.3-0.6c-0.2-0.1-0.6-0.2-1.3-0.1c-0.6,0.1-1.1,0.3-1.4,0.5c-0.2,0.4-0.5,1.8-1.1,4.6
			c-0.5,2.7-0.4,4.3,0.4,4.7c0.8,0.4,1.9-0.2,3.2-1.7c0.5-0.6,1.1-1.2,1.4-1.6c0.1,0.2,0.1,0.5,0.2,0.6c0.2,0.5,0.5,0.9,0.7,1.3
			c0.4,0.4,0.7,0.6,1.2,0.8s1,0.3,1.6,0.2c0.8-0.1,1.5-0.2,2.2-0.5c0.5-0.3,1.1-0.6,1.5-1v0.1c0,0.4,0.1,0.5,0.4,0.7
			c0.2,0.2,0.5,0.2,0.7,0.2c0.1,0,0.3,0,0.4-0.1c0.2-0.1,0.3-0.1,0.5-0.2c0.2-0.1,0.3-0.2,0.4-0.3c0.1-0.1,0.2-0.2,0.3-0.4
			c0-0.1,0.1-0.5,0.3-1.4s0.5-1.7,1.2-2.8c0.6-1.1,1.1-1.8,1.5-2.2C38,13,38,12.9,38,12.9c0.1,0,0.1,0.1,0.1,0.4
			c0,0.2-0.2,1.3-0.5,3.1c-0.4,1.8-0.5,3-0.5,3.3c0.1,0.4,0.2,0.7,0.4,0.9c0.2,0.3,0.5,0.4,0.8,0.4c0,0,0.1,0,0.2,0
			c0.3,0,0.6-0.1,0.9-0.3s0.6-0.4,0.9-0.6s0.6-0.5,0.9-0.9c0.1-0.2,0.4-0.5,0.8-1c0.1,0.3,0.1,0.5,0.3,0.8c0.2,0.4,0.4,0.7,0.6,1
			s0.5,0.5,0.9,0.6c0.4,0.1,0.7,0.2,1.2,0.2c1.1-0.2,1.9-0.5,2.5-1.2s1-1.4,1.2-2.1c0.2-0.8,0.2-1.4,0-2.1c-0.2-0.5-0.5-1.2-0.7-1.6
			c-0.3-0.5-0.5-0.9-0.8-1.3c-0.4-0.5-0.4-0.9,0.2-1.2c0.5-0.3,0.8-0.3,0.8,0.1c0,0.3,0.2,0.5,0.5,0.6s0.6-0.1,0.9-0.6
			c0.4-0.5,0.5-0.9,0.6-1.3C49.9,10.1,49.9,9.7,49.8,9.3z M28.4,14.3c0.2-0.2,0.4-0.5,0.5-0.6s0.4-0.4,0.6-0.6
			c0.2-0.2,0.4-0.4,0.5-0.5c0.1,0.4,0,0.7-0.1,1s-0.3,0.5-0.4,0.7s-0.4,0.4-0.6,0.5c-0.2,0.1-0.5,0.2-0.6,0.2s-0.4,0-0.5-0.1
			C28.1,14.7,28.3,14.4,28.4,14.3z M46,17c-0.1,0.2-0.2,0.4-0.4,0.5c-0.2,0.2-0.3,0.4-0.5,0.5c-0.2,0.1-0.4,0.2-0.6,0.2
			c-0.2,0-0.3,0-0.5,0c-0.2-0.1-0.3-0.2-0.4-0.4c-0.1-0.2-0.1-0.4-0.1-0.6c0-0.2,0.1-0.5,0.3-0.7c0.2-0.3,0.4-0.5,0.6-0.6
			c0.1-0.1,0.2-0.1,0.3-0.2c0.1-0.1,0.2-0.1,0.3-0.2l0.2-0.2c0.1-0.1,0.1-0.2,0.2-0.3c0.2,0.2,0.3,0.4,0.5,0.6
			c0.2,0.3,0.3,0.5,0.3,0.7C46.1,16.6,46.1,16.8,46,17z"/>
	</g>
	<g>
		<path class="st1" d="M39.4,31.9c-0.1,0-0.3,0-0.5,0.1s-0.4,0.1-0.5,0.2c-0.2,0.1-0.4,0.2-0.5,0.3c-0.2,0.1-0.3,0.2-0.4,0.3
			c-0.4,0.2-0.6,0.5-0.8,0.8s-0.4,0.6-0.5,1.1c-0.1,0.4-0.2,0.7-0.2,1.2c0,0.4,0,0.8,0,1.2c0.2-0.1,0.4-0.3,0.6-0.5
			c0.3-0.3,0.5-0.5,0.7-0.8s0.5-0.6,0.8-1c0.3-0.4,0.5-0.7,0.7-1c0.2-0.4,0.4-0.6,0.5-0.9s0.2-0.5,0.2-0.7h-0.1
			C39.5,31.8,39.4,31.8,39.4,31.9z"/>
		<path class="st1" d="M57.3,31.6c-0.7,0.5-1.2,1.2-1.5,2.1c-0.4,0.8-0.4,1.5-0.3,2.1s0.6,0.4,1.4-0.7s1.3-1.9,1.4-2.5
			c0.1-0.6,0.2-1.1,0.1-1.4C58.4,30.9,58,31.1,57.3,31.6z"/>
		<path class="st1" d="M77.4,31.7c0.3-0.1,0.5-0.3,0.6-0.5c0.2-0.2,0.3-0.5,0.4-0.7c0.1-0.3,0.1-0.6,0.1-1c-0.2,0.1-0.4,0.3-0.5,0.5
			c-0.2,0.2-0.4,0.4-0.6,0.5c-0.2,0.2-0.4,0.5-0.5,0.6s-0.3,0.5-0.5,0.6c0.1,0.1,0.3,0.1,0.5,0.1C77,31.9,77.1,31.8,77.4,31.7z"/>
		<path class="st1" d="M67.4,27.7c-0.1,0.5-0.4,1.3-0.7,2.4s-0.6,2.1-0.8,2.7c-0.2,0.7-0.4,1.4-0.5,2s-0.2,1.4-0.2,2.2
			s0.2,0.9,0.5,0.5c0.4-0.5,0.7-1.2,1.1-2.2c0.4-1,0.5-1.6,0.5-1.8c0.2-0.8,0.5-1.8,0.9-3.1s0.7-2.3,0.9-3.1c-0.3,0-0.6,0.1-0.9,0.1
			C68,27.6,67.8,27.6,67.4,27.7z"/>
		<path class="st2" d="M31.6,34.3c-0.3-0.5-0.6-1-1-1.4s-0.9-0.8-1.4-1.2c-0.5-0.4-1.1-0.6-1.7-0.8c-0.4-0.2-0.6-0.3-1-0.4
			c-0.4-0.1-0.7-0.2-1-0.3c-0.4-0.1-0.7-0.2-1.1-0.2c-0.4-0.1-0.7-0.2-1-0.3c-0.2,0-0.4-0.1-0.6-0.2c-0.3-0.1-0.5-0.2-0.8-0.4
			c-0.3-0.1-0.5-0.3-0.7-0.5s-0.3-0.4-0.4-0.5c0-0.1,0-0.3,0.2-0.5c0.1-0.2,0.2-0.3,0.3-0.4c0.2-0.2,0.5-0.5,1-0.6
			c0.5-0.3,1-0.5,1.5-0.6s1.2-0.4,1.7-0.5c0.6-0.2,1.2-0.3,1.6-0.3c0.3,0,0.5,0,0.7,0s0.4,0.1,0.5,0.3s0.2,0.3,0.1,0.5
			c-0.1,0.2-0.3,0.4-0.5,0.5c-0.2,0.2-0.5,0.4-0.8,0.5c-0.3,0.2-0.5,0.3-0.8,0.5c-0.3,0.2-0.5,0.3-0.6,0.4c-0.2,0.1-0.3,0.3-0.3,0.4
			c0,0.1,0,0.2,0.1,0.3c0,0.1,0.1,0.2,0.1,0.3c0.1,0.2,0.1,0.3,0.2,0.5c0.1,0.1,0.2,0.3,0.3,0.4c0.1,0.1,0.2,0.2,0.4,0.3
			c0.1,0.1,0.3,0.1,0.5,0.1c0.3,0,0.6-0.1,0.8-0.3c0.3-0.2,0.5-0.4,0.7-0.5c0.3-0.2,0.5-0.4,0.7-0.6c0.3-0.3,0.5-0.5,0.7-0.7
			c0.2-0.3,0.4-0.5,0.5-0.9c0.1-0.3,0.2-0.6,0.2-1c0-0.4-0.1-0.7-0.3-1c-0.2-0.3-0.5-0.5-0.7-0.7c-0.3-0.2-0.6-0.4-1-0.5
			c-0.3-0.1-0.6-0.2-1.1-0.2c-0.4-0.1-0.7-0.1-1.1-0.1c-0.4,0-0.6,0-1,0h-0.4c-0.5,0-0.9,0.1-1.4,0.2c-0.5,0.1-1.1,0.3-1.6,0.5
			s-1.1,0.4-1.6,0.6c-0.5,0.3-1,0.5-1.4,0.9c-0.4,0.4-0.7,0.7-1,1.2c-0.3,0.5-0.4,0.9-0.3,1.4c0,0.6,0.3,1.1,0.5,1.5
			c0.4,0.5,0.8,0.8,1.3,1.2c0.5,0.3,1.1,0.5,1.6,0.8c0.5,0.3,1.1,0.4,1.6,0.5c0.4,0.1,0.7,0.2,1.1,0.2s0.7,0.2,1.1,0.3
			c0.4,0.1,0.8,0.3,1.3,0.5c0.5,0.2,0.9,0.5,1.3,0.7s0.7,0.6,1,1c0.3,0.4,0.5,0.8,0.5,1.3c0,0.6-0.1,1.3-0.5,1.8
			c-0.4,0.6-0.7,1.2-1.4,1.6c-0.5,0.5-1.2,1-1.9,1.4c-0.7,0.5-1.4,0.8-2.2,1.1c-0.7,0.3-1.4,0.5-2.2,0.7s-1.4,0.3-1.9,0.3
			c-0.4,0-0.7,0-1.1,0c-0.4,0-0.7-0.1-1.1-0.2c-0.4-0.1-0.6-0.3-0.8-0.4c-0.2-0.2-0.4-0.4-0.5-0.5c-0.1-0.2-0.3-0.5-0.3-0.7
			c-0.1-0.3-0.1-0.5-0.1-0.9c0-0.7,0.1-1.4,0.3-1.9c0.3-0.6,0.5-1.1,1-1.5s0.9-0.8,1.5-1.1s1.3-0.5,1.9-0.5s1.3,0,1.9,0.2
			c0.5,0.1,0.8,0.2,1.3,0.3s0.9,0.2,1.4,0.2c0.1,0,0.2,0,0.3,0c0.1,0,0.2-0.1,0.3-0.1c0.1-0.1,0.2-0.1,0.2-0.2
			c0.3-0.2,0.3-0.3,0.3-0.4c0-0.2-0.1-0.3-0.2-0.5s-0.2-0.3-0.4-0.4c-0.3-0.3-0.6-0.5-1.1-0.7s-0.9-0.3-1.4-0.4
			c-0.5-0.1-1-0.1-1.4-0.1s-0.9,0-1.4,0c-0.5,0-1.2,0.1-1.8,0.2s-1.4,0.3-2,0.5c-0.6,0.2-1.3,0.4-1.9,0.6c-0.6,0.3-1.1,0.5-1.5,0.9
			c-1.1,0.8-1.8,1.6-2.3,2.6c-0.5,1-0.9,1.9-1,2.8c-0.1,1,0,1.9,0.3,2.8s0.8,1.7,1.4,2.3c0.6,0.7,1.4,1.3,2.3,1.6
			c0.9,0.4,2,0.6,3.2,0.6c0.2,0,0.3,0,0.5,0c0.2,0,0.3,0,0.5,0c1.4-0.1,2.8-0.4,4.1-0.7c1.3-0.4,2.5-0.9,3.6-1.5s2.2-1.4,3.1-2.2
			s1.7-1.6,2.3-2.5c0.6-0.9,1.1-1.8,1.4-2.7c0.4-0.9,0.5-1.8,0.5-2.6C31.9,35.4,31.8,34.8,31.6,34.3z"/>
		<path class="st2" d="M90.9,31.7c-0.2-0.1-0.4-0.2-0.5-0.2c-0.1,0-0.3,0-0.4,0.1c-0.1,0.1-0.2,0.1-0.3,0.3c-2,2.6-3,3.9-3.1,3.7
			s-0.1-0.5,0-1c0.2-0.5,0.3-1,0.5-1.4c0.1-0.4,0.3-0.8,0.5-1.2c0.2-0.5,0.4-0.9,0.5-1.4s0.4-0.9,0.5-1.3c0-0.1,0.1-0.2,0.2-0.5
			c0.1-0.2,0.2-0.5,0.3-0.7c0.1-0.3,0.2-0.5,0.3-0.8c0.1-0.3,0.2-0.5,0.3-0.8c0.1-0.3,0.2-0.5,0.2-0.7c0.1-0.2,0.1-0.4,0.1-0.5
			c0-0.2,0-0.3-0.1-0.3s-0.2-0.1-0.3-0.2c-0.2-0.1-0.5-0.3-0.6-0.4c-0.2-0.1-0.5-0.2-0.7-0.1c-0.4,0-0.6,0.1-0.8,0.2
			c-0.2,0.1-0.4,0.3-0.5,0.5c-0.2,0.5-0.5,0.8-0.7,1.1s-0.5,0.5-0.9,0.7c-0.3,0.2-0.6,0.4-0.9,0.5c-0.3,0.1-0.6,0.2-0.9,0.3
			c-0.3,0.1-0.5,0.1-0.7,0.2c-0.2,0.1-0.4,0.1-0.5,0.2l0,0c-0.1,0.1-0.1,0.1-0.2,0.3c-0.1,0.1-0.2,0.3-0.2,0.4
			c-0.1,0.1-0.1,0.3-0.2,0.4s-0.1,0.2-0.1,0.3c0,0.2,0,0.4,0.1,0.6c0,0.2,0.1,0.4,0.1,0.5c0,0.4-0.3,1.2-0.8,2.3
			c-0.1,0.1-0.1,0.2-0.2,0.3c-0.5,0.7-1,1.4-1.6,1.8c-0.6,0.5-1.3,0.7-1.9,0.8c-0.6,0.1-1.1,0-1.2-0.5c-0.2-0.5-0.2-0.8-0.1-1.2
			c0.1-0.3,0.2-0.5,0.2-0.5c0.7-0.2,1.4-0.4,2.1-0.6c0.6-0.3,1.2-0.6,1.7-1.2c0.5-0.5,0.7-1.3,0.7-2.1c0-0.8-0.3-1.4-1-1.8
			c-0.6-0.4-1.4-0.5-2.4-0.3s-1.9,0.7-2.7,1.6c-0.8,0.9-1.3,1.8-1.4,2.7c-0.1,0.8-0.2,1.4-0.2,1.8c-0.3,0.5-0.7,1.2-1.4,2
			c-0.7,0.8-1.1,1-1.1,0.5s0-1.2,0.1-1.7c0.1-0.6,0.3-1.3,0.4-1.9c0.2-0.6,0.4-1.5,0.7-2.6s0.5-1.9,0.6-2.3c0-0.1,0.1-0.3,0.1-0.4
			c0-0.1,0.1-0.3,0.1-0.4c0.2,0,0.5-0.1,0.7-0.1s0.6-0.1,1-0.1s0.7-0.1,1.1-0.1c0.4-0.1,0.7-0.1,1.1-0.2c0.4-0.1,0.6-0.1,0.9-0.2
			c0.3-0.1,0.5-0.2,0.6-0.3c0.1-0.1,0.2-0.2,0.3-0.3c0.1-0.1,0.2-0.3,0.3-0.5s0.1-0.4,0.1-0.5c0-0.1-0.1-0.2-0.1-0.3
			c-0.1-0.1-0.2-0.1-0.3-0.2c-0.1-0.1-0.2-0.1-0.4-0.1c-0.1,0-0.2,0-0.3,0c-0.3,0-0.5,0.1-0.8,0.1s-0.5,0.1-0.8,0.1L73,25
			c0.5-2.3,0.5-3.4,0.2-3.5s-0.6-0.1-0.9-0.1c-0.2,0-0.4,0-0.5,0.1c-0.2,0-0.4,0.2-0.6,0.4c-0.3,0.3-0.5,0.7-0.8,1.5s-0.5,1.4-0.6,2
			c-0.3,0-0.5,0.1-0.8,0.1s-0.5,0.1-0.8,0.1c0.1-1.6,0-2.5-0.2-2.5s-0.5-0.1-0.7,0c-0.2,0-0.4,0-0.5,0.1c-0.2,0-0.4,0.3-0.7,0.7
			c-0.6,1-1,1.8-1.1,2.3c-0.1,0-0.3,0-0.5,0c-0.2,0-0.5,0.1-0.7,0.1s-0.5,0.1-0.8,0.1s-0.5,0.1-0.8,0.1s-0.5,0.1-0.6,0.1
			s-0.3,0.1-0.4,0.1s-0.2,0.1-0.2,0.2c-0.1,0.1-0.2,0.2-0.2,0.2c-0.1,0.1-0.1,0.2-0.2,0.3c-0.1,0.2-0.1,0.3-0.1,0.4
			c0,0.2,0.1,0.3,0.2,0.4s0.2,0.2,0.4,0.2c0.1,0,0.3,0.1,0.4,0.1c0.2,0,0.3,0,0.4,0c0.5,0,0.9-0.1,1.4-0.1s0.9-0.1,1.4-0.1
			c-0.2,0.6-0.5,1.4-0.7,2.5c-0.4,1.1-0.6,1.9-0.8,2.5c-0.2,0.5-0.3,1.1-0.5,1.7c-0.3,0.5-0.7,0.8-1.3,1.3c-0.7,0.5-1.1,0.5-1-0.5
			c0.1-0.2,0.1-0.5,0.3-0.8c0.1-0.4,0.2-0.7,0.3-1.1s0.2-0.8,0.4-1.2s0.2-0.8,0.3-1.2c0.1-0.4,0.2-0.7,0.2-1.1
			c0.1-0.3,0.1-0.5,0.1-0.7c0-0.4-0.2-0.6-0.5-0.7c-0.3-0.2-0.5-0.3-0.9-0.2c-0.2,0-0.3,0-0.5,0.1s-0.3,0.2-0.5,0.3
			c-0.2,0-0.4-0.1-0.5-0.1c-0.2,0-0.4,0-0.5,0c-0.8,0.1-1.6,0.3-2.3,0.6s-1.4,0.9-1.8,1.5c-0.5,0.6-0.9,1.3-1.2,2.1
			c-0.2,0.5-0.3,1-0.3,1.4c-0.1,0.1-0.2,0.3-0.3,0.4c-0.2,0.3-0.4,0.5-0.5,0.8c-0.2,0.3-0.4,0.5-0.5,0.7c-0.2,0.3-0.4,0.5-0.5,0.5
			c-0.2,0.2-0.3,0.3-0.4,0.3c-0.1,0-0.1-0.1-0.2-0.2c0-0.1,0-0.3,0.1-0.6c0.2-0.7,0.4-1.5,0.5-2.3s0.5-1.5,0.6-2.3
			c0.1-0.2,0.1-0.4,0.2-0.6c0.1-0.3,0.2-0.5,0.3-0.7c0.1-0.3,0.1-0.5,0.2-0.7c0.1-0.3,0.1-0.5,0.1-0.6c0-0.3-0.1-0.5-0.3-0.5
			s-0.4-0.2-0.6-0.2c-0.1,0-0.3,0-0.5,0.1c-0.2,0.1-0.4,0.1-0.5,0.2c-0.2,0.1-0.4,0.2-0.5,0.3c-0.2,0.1-0.3,0.2-0.4,0.3
			c-0.1,0.1-0.2,0.2-0.2,0.3s-0.1,0.2-0.1,0.4c0,0.1,0,0.2-0.1,0.3c0,0.1,0,0.2,0,0.3c-0.1,0.3-0.1,0.6-0.2,1.1
			c-0.1,0.5-0.2,0.9-0.3,1.4s-0.3,1-0.5,1.5c-0.2,0.5-0.3,1-0.5,1.4s-0.4,0.7-0.5,1c-0.2,0.3-0.5,0.4-0.6,0.5c-0.1,0-0.2,0-0.3-0.1
			c-0.2-0.1-0.2-0.3-0.2-0.5s0-0.6,0.1-1.1c0.1-0.5,0.2-0.9,0.4-1.4s0.3-1,0.5-1.4c0.1-0.5,0.3-0.8,0.4-1.2c0.1-0.4,0.2-0.5,0.2-0.6
			c0-0.4-0.1-0.5-0.4-0.7c-0.5-0.4-0.7-0.4-1-0.4c-0.4,0-0.6,0.1-0.9,0.3c-0.3,0.2-0.5,0.4-0.7,0.5c-0.2,0.2-0.3,0.4-0.4,0.5
			c-0.1,0.2-0.1,0.4-0.2,0.6c0,0,0,0.2-0.1,0.4c-0.1,0.3-0.3,1.2-0.6,2.6c-0.1,0.4-0.1,0.6-0.2,1c-0.3,0.5-0.5,1-1,1.6
			c-0.9,1.5-1.5,2.5-1.7,2.9S40.1,41,40,41.2c-0.2,0.2-0.3,0.3-0.3,0.3c-0.1,0-0.1-0.3,0-0.8c0.1-0.2,0.1-0.5,0.3-0.9
			c0.1-0.4,0.3-0.8,0.5-1.4s0.4-1.1,0.5-1.7s0.4-1.2,0.6-1.8c0.2-0.6,0.4-1.2,0.6-1.7c0.2-0.5,0.4-1.1,0.5-1.5
			c0.2-0.5,0.3-0.8,0.4-1.1c0.1-0.3,0.1-0.5,0.1-0.5c0-0.2-0.1-0.4-0.1-0.5c-0.1-0.1-0.2-0.2-0.3-0.3s-0.3-0.1-0.4-0.2
			c-0.2,0-0.3,0-0.5,0s-0.3,0-0.5,0.1c-0.2,0-0.3,0.1-0.4,0.2c-0.2,0-0.4,0-0.5,0c-0.2,0-0.4,0-0.5,0c-0.6,0-1.3,0.1-1.9,0.3
			s-1.2,0.4-1.7,0.6c-0.5,0.3-1,0.6-1.4,1.1s-0.8,1-1.1,1.5c-0.2,0.4-0.4,0.8-0.5,1.3s-0.2,1-0.3,1.4c0,0.5,0,1,0.1,1.4
			s0.3,0.9,0.5,1.3s0.5,0.6,0.9,0.8s0.9,0.3,1.5,0.3c0.2,0,0.4,0,0.5-0.1c0.2,0,0.4-0.1,0.5-0.2c-0.2,0.5-0.3,0.9-0.4,1.4
			c-0.1,0.5-0.1,1-0.1,1.4c0,0.5,0,1,0.1,1.4c0.1,0.5,0.2,0.8,0.4,1.2s0.4,0.6,0.6,0.8c0.3,0.2,0.6,0.3,1,0.3c0.3,0,0.5,0,0.5-0.1
			c0.2,0,0.3-0.1,0.4-0.2c0.1-0.1,0.2-0.2,0.3-0.3c0.1-0.1,0.2-0.3,0.3-0.5c0.5-1,1.7-2.9,3.3-5.9c0.5,0.6,1,1,1.8,0.9
			c0.9-0.1,1.7-0.6,2.3-1.5c-0.1,1,0.3,1.6,1.1,1.8c0.5,0,0.9-0.2,1.4-0.5c0.2-0.1,0.4-0.3,0.6-0.5c0.3-0.3,0.5-0.5,0.8-0.9
			c0.3-0.4,0.5-0.7,0.8-1.1c0.1-0.2,0.3-0.4,0.4-0.5c0,0.1,0,0.1,0,0.2c0.1,0.5,0.3,0.8,0.5,1.2c0.2,0.4,0.5,0.6,0.9,0.8
			s0.8,0.3,1.4,0.3c0.4,0,0.7-0.1,1.1-0.3c0.4-0.1,0.9-0.5,1.7-1.3c0.5,0.9,1.3,1.3,2.3,1.1c0.5-0.1,1.1-0.5,1.7-1.3
			c0,1.1,0.3,1.8,0.6,2.2c0.5,0.5,1.2,0.6,2,0.6c0.7-0.1,1.3-0.5,1.7-1c0.4-0.5,0.7-1.2,1.1-1.8c0.2,1.4,0.7,2,1.5,2
			c0.8,0,1.6-0.4,2.3-1.1s1.3-1.4,1.7-2.2c0.2,0.4,0.4,0.7,0.6,1c0.4,0.4,0.7,0.6,1.2,0.8s1,0.3,1.6,0.2c0.8-0.1,1.5-0.2,2.2-0.5
			c0.1,0,0.2-0.1,0.2-0.1s0,0,0.1,0.1s0.2,0.1,0.3,0.2c0.1,0,0.2,0.1,0.3,0.1c0.1,0,0.2,0,0.3,0c0.4,0,0.6-0.2,0.9-0.5
			s0.5-0.7,0.9-1.4s0.7-1.4,1.1-2.2c0.4-0.9,0.6-1.6,0.7-2.2c0.1-0.6,0.3-1.1,0.5-1.4c0.3-0.1,0.5-0.2,0.7-0.2
			c0.3-0.1,0.5-0.1,0.7-0.2c-0.3,0.4-0.5,1.3-0.9,2.5c-0.4,1.3-0.6,2.4-0.6,3.4s0.1,1.8,0.4,2.3c0.3,0.5,0.6,0.8,1,0.8
			c0.5,0,0.9-0.1,1.4-0.5s1.1-0.9,1.7-1.8c0.6-0.9,1.2-1.6,1.7-2.3c0.5-0.6,0.8-1.1,1-1.4s0.3-0.5,0.2-0.6
			C91.2,32.1,91.1,31.9,90.9,31.7z M76.8,31.2c0.2-0.2,0.4-0.5,0.5-0.6c0.2-0.2,0.4-0.4,0.6-0.5c0.2-0.2,0.4-0.4,0.5-0.5
			c0.1,0.4,0,0.7-0.1,1s-0.3,0.5-0.4,0.7c-0.2,0.2-0.4,0.4-0.6,0.5c-0.2,0.1-0.5,0.2-0.6,0.2s-0.4,0-0.5-0.1
			C76.4,31.6,76.6,31.5,76.8,31.2z M39.5,32.5c-0.1,0.3-0.3,0.6-0.5,0.9c-0.2,0.4-0.5,0.6-0.7,1c-0.3,0.4-0.5,0.6-0.8,1
			S37,36,36.8,36.2c-0.3,0.3-0.5,0.4-0.6,0.5c0-0.4,0-0.7,0-1.2c0-0.4,0.1-0.8,0.2-1.2c0.1-0.4,0.3-0.7,0.5-1.1s0.5-0.6,0.8-0.8
			c0.1-0.1,0.3-0.2,0.4-0.3c0.2-0.1,0.3-0.2,0.5-0.3c0.2-0.1,0.4-0.2,0.5-0.2c0.2-0.1,0.3-0.1,0.5-0.1h0.1h0.1
			C39.7,32.1,39.6,32.3,39.5,32.5z M58.4,32.5c-0.1,0.6-0.6,1.5-1.4,2.5s-1.3,1.3-1.4,0.7s-0.1-1.3,0.3-2.1c0.4-0.8,0.8-1.5,1.5-2.1
			c0.7-0.5,1.1-0.6,1.2-0.5C58.5,31.4,58.5,31.8,58.4,32.5z M68.4,30.5c-0.5,1.3-0.7,2.3-0.9,3.1c0,0.2-0.2,0.8-0.5,1.8
			s-0.7,1.7-1.1,2.2c-0.4,0.5-0.5,0.3-0.5-0.5s0.1-1.5,0.2-2.2s0.3-1.4,0.5-2c0.2-0.7,0.5-1.6,0.8-2.7s0.5-2,0.7-2.4
			c0.3,0,0.6-0.1,0.9-0.1s0.6-0.1,0.9-0.1C69,28.2,68.8,29.3,68.4,30.5z"/>
	</g>
</g>
</svg>
